<svg width="172" height="31" viewBox="0 0 172 31" fill="none" xmlns="http://www.w3.org/2000/svg">
<path d="M9.39843 6.03666H0V0.375H25.6059V6.03666H16.1988V30.396H9.39843V6.03666ZM48.6225 18.9396C48.6225 19.0283 48.5789 19.6318 48.5004 20.741H31.4124C31.7262 22.1786 32.4499 23.3056 33.6007 24.1309C34.7428 24.9651 36.1726 25.3733 37.8814 25.3733C39.0584 25.3733 40.0872 25.2047 40.9852 24.8586C41.9093 24.4948 42.7637 23.9179 43.5484 23.1459L47.027 27.0061C44.8997 29.4909 41.796 30.7421 37.7158 30.7421C35.1613 30.7421 32.9119 30.2363 30.9503 29.2335C28.9974 28.2041 27.4804 26.7931 26.4167 24.9917C25.3531 23.1903 24.83 21.1492 24.83 18.8597C24.83 16.5968 25.3444 14.5735 26.3819 12.7721C27.4455 10.9352 28.884 9.52418 30.7062 8.52141C32.5458 7.49201 34.6033 6.97732 36.8701 6.97732C39.0846 6.97732 41.0811 7.46539 42.8771 8.43267C44.6643 9.40881 46.068 10.8109 47.0706 12.639C48.1081 14.4404 48.6225 16.5436 48.6225 18.9396ZM36.9137 12.0355C35.4316 12.0355 34.1848 12.4704 33.1822 13.3223C32.1709 14.1831 31.5519 15.3545 31.3339 16.8453H42.4586C42.2319 15.3811 41.6129 14.2274 40.6103 13.3667C39.599 12.4792 38.3697 12.0355 36.9137 12.0355ZM63.8971 30.7421C61.4909 30.7421 59.32 30.2363 57.3932 29.2335C55.4839 28.2041 53.993 26.7931 52.9032 24.9917C51.8396 23.1903 51.3078 21.1492 51.3078 18.8597C51.3078 16.5702 51.8396 14.5292 52.9032 12.7277C53.993 10.9263 55.4839 9.52418 57.3932 8.52141C59.32 7.49201 61.4909 6.97732 63.8971 6.97732C66.2773 6.97732 68.3435 7.49201 70.1046 8.52141C71.9006 9.52418 73.1997 10.9707 74.0105 12.852L68.9364 15.6384C67.7594 13.5264 66.068 12.4704 63.8535 12.4704C62.1447 12.4704 60.7323 13.0383 59.6164 14.1831C58.5004 15.3278 57.9337 16.8808 57.9337 18.8597C57.9337 20.8298 58.5004 22.3916 59.6164 23.5364C60.7323 24.6722 62.1447 25.2491 63.8535 25.2491C66.0942 25.2491 67.7855 24.193 68.9364 22.0721L74.0105 24.903C73.1997 26.731 71.9006 28.1686 70.1046 29.198C68.3435 30.2274 66.2773 30.7421 63.8971 30.7421ZM91.5083 6.97732C94.3069 6.97732 96.5562 7.8381 98.265 9.5508C100 11.2635 100.872 13.8104 100.872 17.1825V30.396H94.3243V18.2119C94.3243 16.3838 93.932 15.0261 93.1473 14.1387C92.3627 13.2247 91.2293 12.7721 89.7472 12.7721C88.0907 12.7721 86.7829 13.2957 85.7977 14.3517C84.8213 15.3811 84.333 16.9252 84.333 18.9839V30.396H77.7855V7.32341H84.0366V10.0211C84.8997 9.05385 85.9808 8.30843 87.2711 7.79373C88.5528 7.25241 89.9651 6.97732 91.5083 6.97732ZM117.794 30.7421C115.414 30.7421 113.278 30.2363 111.369 29.2335C109.494 28.2041 108.03 26.7931 106.966 24.9917C105.902 23.1903 105.371 21.1492 105.371 18.8597C105.371 16.5702 105.902 14.5292 106.966 12.7277C108.03 10.9263 109.494 9.52418 111.369 8.52141C113.278 7.49201 115.414 6.97732 117.794 6.97732C120.174 6.97732 122.302 7.49201 124.176 8.52141C126.051 9.52418 127.515 10.9263 128.579 12.7277C129.643 14.5292 130.174 16.5702 130.174 18.8597C130.174 21.1492 129.643 23.1903 128.579 24.9917C127.515 26.7931 126.051 28.2041 124.176 29.2335C122.302 30.2363 120.174 30.7421 117.794 30.7421ZM117.794 25.2491C119.477 25.2491 120.846 24.6722 121.909 23.5364C122.999 22.365 123.548 20.8031 123.548 18.8597C123.548 16.9163 122.999 15.3722 121.909 14.2274C120.846 13.0561 119.477 12.4704 117.794 12.4704C116.112 12.4704 114.734 13.0561 113.636 14.2274C112.546 15.3722 112.005 16.9163 112.005 18.8597C112.005 20.8031 112.546 22.365 113.636 23.5364C114.734 24.6722 116.112 25.2491 117.794 25.2491Z" fill="#F8F8F8"/>
<path d="M140.427 30.9107C138.44 30.9107 136.609 30.538 134.935 29.7926C133.278 29.0205 131.927 27.9379 130.863 26.5358L134.638 21.9035C136.234 24.1043 138.047 25.2047 140.096 25.2047C142.86 25.2047 144.246 23.5452 144.246 20.2263V5.94792H133.924V0.375H151.003V19.8447C151.003 23.5364 150.114 26.3051 148.318 28.1686C146.53 29.9967 143.897 30.9107 140.427 30.9107ZM163.514 10.3672C164.298 9.24908 165.345 8.40604 166.661 7.8381C168.004 7.26129 169.547 6.97732 171.282 6.97732V13.1537C170.55 13.1004 170.061 13.0649 169.808 13.0649C167.934 13.0649 166.469 13.6151 165.406 14.6978C164.342 15.7538 163.81 17.36 163.81 19.4986V30.396H157.263V7.32341H163.514V10.3672Z" fill="#FF0099"/>
</svg>
